<svg width="961" height="430" viewBox="0 0 961 430" fill="none" xmlns="http://www.w3.org/2000/svg">
<g clip-path="url(#clip0_1_2)">
<path d="M70 146.706C49.2 149.106 34.6667 204.373 30 231.706C34.6667 220.039 45.6 196.706 52 196.706C58.4 196.706 81.3333 180.039 92 171.706L298 163.706C230.667 157.039 90.8 144.306 70 146.706Z" fill="#D80000"/>
<path d="M927 191.706C864.6 137.306 563 139.039 420 146.706C749.6 146.706 856.667 180.039 869 196.706C856.667 196.706 832.2 197.906 833 202.706C833.8 207.506 874.667 224.039 895 231.706L886 237.706L932 243.706L919 231.706C923.333 220.039 931 195.706 927 191.706Z" fill="#D80000"/>
<path d="M177 123.706L484 171.706C371.333 161.373 138 140.706 106 140.706C74 140.706 68.6667 133.373 70 129.706C61.3333 118.039 45.6 94.7061 52 94.7061C84.8 89.9061 101.667 106.706 106 115.706C160 102.706 290.6 70.9061 381 47.7061C471.4 24.5061 598 92.7061 650 129.706C626.667 121.373 570.6 100.506 533 83.7061C456.2 36.0523 263.667 90.517 177 123.706Z" fill="#D80000"/>
<path d="M161.6 300.626V358.676C161.6 366.236 159.26 372.356 154.58 377.036C149.9 381.536 143.78 383.786 136.22 383.786H116.78C109.22 383.786 103.1 381.536 98.42 377.036C93.74 372.356 91.4 366.236 91.4 358.676V217.736C91.4 210.176 93.74 204.146 98.42 199.646C103.1 194.966 109.22 192.626 116.78 192.626H136.22C143.78 192.626 149.9 194.966 154.58 199.646C159.26 204.146 161.6 210.176 161.6 217.736V278.216L135.95 275.516V219.086C135.95 218.186 135.5 217.736 134.6 217.736H118.4C117.5 217.736 117.05 218.186 117.05 219.086V357.326C117.05 358.226 117.5 358.676 118.4 358.676H134.6C135.5 358.676 135.95 358.226 135.95 357.326V300.626H161.6ZM197.997 382.706H172.347L186.927 218.816H182.067L184.767 193.706H234.177L250.917 382.706H225.267L222.297 350.306H200.967L197.997 382.706ZM203.127 325.196H220.137L211.767 231.236L203.127 325.196ZM258.895 218.816L261.595 193.706H304.255C311.815 193.706 317.935 196.046 322.615 200.726C327.295 205.226 329.635 211.256 329.635 218.816V303.326C329.635 307.286 328.825 310.886 327.205 314.126C325.585 317.186 323.425 319.796 320.725 321.956L338.005 382.706H312.085L296.695 328.436H288.595V382.706H262.945V218.816H258.895ZM302.635 218.816H288.595V303.326H302.635C303.535 303.326 303.985 302.876 303.985 301.976V220.166C303.985 219.266 303.535 218.816 302.635 218.816Z" fill="black"/>
<path d="M416.233 357.596C416.233 365.156 413.893 371.276 409.213 375.956C404.533 380.456 398.413 382.706 390.853 382.706H346.033V218.816H341.983L344.683 193.706H390.853C398.413 193.706 404.533 196.046 409.213 200.726C413.893 205.226 416.233 211.256 416.233 218.816V357.596ZM389.233 218.816H371.683V357.596H389.233C390.133 357.596 390.583 357.146 390.583 356.246V220.166C390.583 219.266 390.133 218.816 389.233 218.816ZM492.289 357.596L490.129 382.706H430.999V218.816H426.949L429.649 193.706H492.289L489.589 218.816H456.649V275.516H486.889L484.189 300.626H456.649V357.596H492.289ZM527.313 382.706H501.663L516.243 218.816H511.383L514.083 193.706H563.493L580.233 382.706H554.583L551.613 350.306H530.283L527.313 382.706ZM532.443 325.196H549.453L541.083 231.236L532.443 325.196ZM658.951 357.596L656.791 382.706H592.261V218.816H588.211L590.911 193.706H617.911V357.596H658.951ZM729.783 357.596L727.623 382.706H668.493V218.816H664.443L667.143 193.706H729.783L727.083 218.816H694.143V275.516H724.383L721.683 300.626H694.143V357.596H729.783ZM739.157 218.816L741.857 193.706H784.517C792.077 193.706 798.197 196.046 802.877 200.726C807.557 205.226 809.897 211.256 809.897 218.816V303.326C809.897 307.286 809.087 310.886 807.467 314.126C805.847 317.186 803.687 319.796 800.987 321.956L818.267 382.706H792.347L776.957 328.436H768.857V382.706H743.207V218.816H739.157ZM782.897 218.816H768.857V303.326H782.897C783.797 303.326 784.247 302.876 784.247 301.976V220.166C784.247 219.266 783.797 218.816 782.897 218.816Z" fill="#D80000"/>
</g>
<defs>
<clipPath id="clip0_1_2">
<rect width="961" height="430" fill="white"/>
</clipPath>
</defs>
</svg>
